<svg width="544" height="491" viewBox="0 0 544 491" fill="none" xmlns="http://www.w3.org/2000/svg">
<g filter="url(#filter0_d_12_130)">
<rect width="536" height="483" transform="translate(4)" fill="white"/>
<path d="M36.2752 211.405V184.816H53.0704V189.471H41.8984V195.019H44.1328C46.6403 195.019 48.6885 195.367 50.2774 196.062C51.8912 196.757 53.0828 197.713 53.8525 198.93C54.6221 200.146 55.0069 201.536 55.0069 203.1C55.0069 204.838 54.6221 206.328 53.8525 207.569C53.0828 208.811 51.8912 209.766 50.2774 210.437C48.6637 211.082 46.5783 211.405 44.0211 211.405H36.2752ZM43.7977 206.787C45.5107 206.787 46.8513 206.514 47.8196 205.968C48.8127 205.422 49.3092 204.466 49.3092 203.1C49.3092 202.157 49.0609 201.437 48.5644 200.941C48.0927 200.444 47.4099 200.109 46.5162 199.935C45.6473 199.736 44.5921 199.637 43.3508 199.637H41.8984V206.787H43.7977ZM77.563 211.405H62.2574V184.816H77.563V189.433H67.8806V195.28H76.8927V199.898H67.8806V206.75H77.563V211.405ZM96.6139 189.135C95.5463 189.135 94.5905 189.347 93.7464 189.769C92.9271 190.191 92.232 190.799 91.661 191.593C91.0899 192.363 90.6555 193.306 90.3576 194.424C90.0845 195.541 89.9479 196.795 89.9479 198.185C89.9479 200.072 90.1714 201.685 90.6182 203.026C91.0899 204.342 91.8223 205.347 92.8154 206.042C93.8085 206.738 95.0746 207.085 96.6139 207.085C97.7063 207.085 98.7862 206.961 99.8538 206.713C100.946 206.464 102.125 206.117 103.392 205.67V210.4C102.225 210.871 101.07 211.219 99.9282 211.442C98.7862 211.666 97.5076 211.777 96.0925 211.777C93.3616 211.777 91.1024 211.219 89.3148 210.102C87.5521 208.96 86.2487 207.371 85.4046 205.335C84.5605 203.274 84.1385 200.878 84.1385 198.148C84.1385 196.137 84.4116 194.299 84.9578 192.636C85.5039 190.948 86.2984 189.495 87.3411 188.279C88.4087 187.062 89.7121 186.119 91.2513 185.449C92.8154 184.778 94.6029 184.443 96.6139 184.443C97.9297 184.443 99.2455 184.617 100.561 184.965C101.902 185.287 103.181 185.734 104.397 186.305L102.572 190.886C101.579 190.414 100.574 190.004 99.5558 189.657C98.5628 189.309 97.5821 189.135 96.6139 189.135ZM111.276 211.405V184.816H132.317V211.405H126.693V189.508H116.899V211.405H111.276ZM162.299 211.405H156.676V189.508H150.159C150.01 190.65 149.849 191.891 149.675 193.232C149.526 194.573 149.352 195.938 149.153 197.328C148.98 198.694 148.793 199.997 148.595 201.238C148.396 202.455 148.198 203.535 147.999 204.478C147.676 206.018 147.242 207.333 146.696 208.426C146.174 209.518 145.442 210.35 144.498 210.921C143.58 211.492 142.376 211.777 140.886 211.777C140.39 211.777 139.918 211.74 139.471 211.666C139.024 211.591 138.602 211.492 138.205 211.368V206.75C138.528 206.849 138.838 206.936 139.136 207.011C139.459 207.085 139.806 207.122 140.179 207.122C140.675 207.122 141.085 206.961 141.407 206.638C141.73 206.316 142.016 205.769 142.264 205C142.512 204.205 142.761 203.113 143.009 201.723C143.133 201.127 143.282 200.283 143.456 199.19C143.629 198.073 143.828 196.77 144.052 195.28C144.3 193.766 144.548 192.127 144.796 190.364C145.045 188.577 145.28 186.727 145.504 184.816H162.299V211.405ZM187.515 211.405L185.578 205.074H175.896L173.96 211.405H167.889L177.274 184.704H184.163L193.585 211.405H187.515ZM182.301 194.163C182.177 193.741 182.016 193.207 181.817 192.562C181.619 191.916 181.42 191.258 181.221 190.588C181.023 189.918 180.861 189.334 180.737 188.838C180.613 189.334 180.439 189.955 180.216 190.7C180.017 191.42 179.819 192.115 179.62 192.785C179.446 193.43 179.31 193.89 179.21 194.163L177.311 200.345H184.238L182.301 194.163ZM206.81 211.405H201.186V189.508H193.962V184.816H214.034V189.508H206.81V211.405ZM242.154 211.405H236.531V199.935H225.992V211.405H220.369V184.816H225.992V195.243H236.531V184.816H242.154V211.405ZM251.079 211.405V184.816H256.702V195.019H258.527C260.985 195.019 263.008 195.367 264.597 196.062C266.186 196.757 267.353 197.713 268.097 198.93C268.867 200.146 269.252 201.536 269.252 203.1C269.252 204.838 268.867 206.328 268.097 207.569C267.328 208.811 266.136 209.766 264.522 210.437C262.933 211.082 260.873 211.405 258.341 211.405H251.079ZM258.192 206.787C259.855 206.787 261.158 206.514 262.102 205.968C263.07 205.422 263.554 204.466 263.554 203.1C263.554 202.157 263.331 201.437 262.884 200.941C262.462 200.444 261.829 200.109 260.985 199.935C260.14 199.736 259.123 199.637 257.931 199.637H256.702V206.787H258.192ZM272.492 211.405V184.816H278.115V211.405H272.492ZM308.475 176.064C308.351 177.355 307.991 178.497 307.395 179.49C306.799 180.459 305.868 181.216 304.602 181.762C303.336 182.308 301.635 182.581 299.5 182.581C297.315 182.581 295.602 182.321 294.361 181.799C293.144 181.253 292.275 180.496 291.754 179.528C291.233 178.559 290.922 177.405 290.823 176.064H295.776C295.9 177.43 296.248 178.336 296.819 178.783C297.39 179.23 298.321 179.453 299.612 179.453C300.679 179.453 301.548 179.217 302.219 178.746C302.914 178.249 303.323 177.355 303.447 176.064H308.475ZM287.062 184.816H292.127V197.663C292.127 198.284 292.114 198.979 292.089 199.749C292.064 200.519 292.04 201.276 292.015 202.021C291.99 202.74 291.965 203.374 291.94 203.92C291.915 204.441 291.891 204.801 291.866 205H291.978L304.267 184.816H311.007V211.405H305.98V198.632C305.98 197.961 305.992 197.229 306.017 196.435C306.042 195.615 306.067 194.833 306.092 194.088C306.141 193.344 306.178 192.698 306.203 192.152C306.253 191.581 306.29 191.209 306.315 191.035H306.166L293.84 211.405H287.062V184.816ZM348.912 191.035C348.912 192.822 348.279 194.262 347.013 195.355C345.747 196.447 344.133 197.13 342.172 197.403V197.514C344.605 197.763 346.467 198.445 347.758 199.563C349.073 200.655 349.731 202.083 349.731 203.845C349.731 205.385 349.309 206.762 348.465 207.979C347.621 209.171 346.367 210.102 344.704 210.772C343.04 211.442 340.98 211.777 338.522 211.777C336.511 211.777 334.724 211.653 333.159 211.405C331.62 211.157 330.28 210.797 329.138 210.325V205.596C329.907 205.968 330.776 206.291 331.744 206.564C332.713 206.812 333.693 207.011 334.686 207.16C335.679 207.284 336.598 207.346 337.442 207.346C339.801 207.346 341.501 207.011 342.544 206.34C343.611 205.645 344.145 204.677 344.145 203.436C344.145 202.169 343.376 201.251 341.836 200.68C340.297 200.084 338.224 199.786 335.617 199.786H333.122V195.392H335.357C337.467 195.392 339.105 195.255 340.272 194.982C341.439 194.709 342.258 194.312 342.73 193.79C343.202 193.269 343.438 192.648 343.438 191.928C343.438 191.01 343.028 190.29 342.209 189.769C341.414 189.222 340.21 188.949 338.596 188.949C337.231 188.949 335.94 189.148 334.724 189.545C333.532 189.942 332.415 190.464 331.372 191.109L328.914 187.348C329.833 186.752 330.801 186.243 331.819 185.821C332.862 185.374 334.004 185.039 335.245 184.816C336.486 184.567 337.864 184.443 339.379 184.443C341.389 184.443 343.103 184.729 344.518 185.3C345.933 185.871 347.013 186.653 347.758 187.646C348.527 188.614 348.912 189.744 348.912 191.035ZM373.209 211.405L371.272 205.074H361.59L359.653 211.405H353.583L362.968 184.704H369.857L379.279 211.405H373.209ZM367.995 194.163C367.871 193.741 367.71 193.207 367.511 192.562C367.312 191.916 367.114 191.258 366.915 190.588C366.717 189.918 366.555 189.334 366.431 188.838C366.307 189.334 366.133 189.955 365.91 190.7C365.711 191.42 365.512 192.115 365.314 192.785C365.14 193.43 365.004 193.89 364.904 194.163L363.005 200.345H369.932L367.995 194.163ZM396.127 211.405L389.722 190.551H389.573C389.598 191.047 389.635 191.792 389.685 192.785C389.734 193.778 389.784 194.846 389.834 195.988C389.883 197.105 389.908 198.123 389.908 199.041V211.405H384.881V184.816H392.552L398.846 205.149H398.958L405.624 184.816H413.295V211.405H408.044V198.818C408.044 197.974 408.057 197.006 408.081 195.913C408.131 194.821 408.168 193.79 408.193 192.822C408.243 191.829 408.28 191.084 408.305 190.588H408.156L401.304 211.405H396.127ZM437.552 211.405H422.246V184.816H437.552V189.433H427.869V195.28H436.881V199.898H427.869V206.75H437.552V211.405ZM453.81 184.816C457.236 184.816 459.731 185.56 461.295 187.05C462.884 188.515 463.678 190.538 463.678 193.12C463.678 194.287 463.504 195.404 463.157 196.472C462.809 197.514 462.226 198.458 461.406 199.302C460.612 200.121 459.557 200.767 458.241 201.238C456.925 201.71 455.299 201.946 453.363 201.946H450.942V211.405H445.319V184.816H453.81ZM453.512 189.433H450.942V197.328H452.804C453.872 197.328 454.79 197.192 455.56 196.919C456.329 196.646 456.925 196.211 457.347 195.615C457.769 195.019 457.98 194.25 457.98 193.306C457.98 191.991 457.62 191.022 456.9 190.402C456.18 189.756 455.051 189.433 453.512 189.433ZM481.536 184.816H486.601V197.663C486.601 198.284 486.588 198.979 486.564 199.749C486.539 200.519 486.514 201.276 486.489 202.021C486.464 202.74 486.439 203.374 486.415 203.92C486.39 204.441 486.365 204.801 486.34 205H486.452L498.741 184.816H505.481V211.405H500.454V198.632C500.454 197.961 500.466 197.229 500.491 196.435C500.516 195.615 500.541 194.833 500.566 194.088C500.615 193.344 500.653 192.698 500.678 192.152C500.727 191.581 500.764 191.209 500.789 191.035H500.64L488.314 211.405H481.536V184.816ZM69.9014 220.816C73.3275 220.816 75.8226 221.56 77.3867 223.05C78.9756 224.515 79.77 226.538 79.77 229.12C79.77 230.287 79.5963 231.404 79.2487 232.472C78.9011 233.514 78.3177 234.458 77.4984 235.302C76.704 236.121 75.6488 236.767 74.333 237.238C73.0172 237.71 71.391 237.946 69.4546 237.946H67.034V247.405H61.4107V220.816H69.9014ZM69.6035 225.433H67.034V233.328H68.896C69.9635 233.328 70.8821 233.192 71.6517 232.919C72.4214 232.646 73.0172 232.211 73.4392 231.615C73.8613 231.019 74.0723 230.25 74.0723 229.306C74.0723 227.991 73.7123 227.022 72.9924 226.402C72.2724 225.756 71.1428 225.433 69.6035 225.433ZM101.448 247.405L99.5119 241.074H89.8295L87.893 247.405H81.8229L91.2074 220.704H98.0968L107.519 247.405H101.448ZM96.2348 230.163C96.1107 229.741 95.9493 229.207 95.7507 228.562C95.5521 227.916 95.3534 227.258 95.1548 226.588C94.9562 225.918 94.7948 225.334 94.6707 224.838C94.5466 225.334 94.3728 225.955 94.1493 226.7C93.9507 227.42 93.7521 228.115 93.5535 228.785C93.3797 229.43 93.2432 229.89 93.1439 230.163L91.2446 236.345H98.1713L96.2348 230.163ZM124.404 225.135C123.337 225.135 122.381 225.347 121.537 225.769C120.717 226.191 120.022 226.799 119.451 227.593C118.88 228.363 118.446 229.306 118.148 230.424C117.875 231.541 117.738 232.795 117.738 234.185C117.738 236.072 117.962 237.685 118.409 239.026C118.88 240.342 119.613 241.347 120.606 242.042C121.599 242.738 122.865 243.085 124.404 243.085C125.497 243.085 126.577 242.961 127.644 242.713C128.736 242.464 129.916 242.117 131.182 241.67V246.4C130.015 246.871 128.861 247.219 127.719 247.442C126.577 247.666 125.298 247.777 123.883 247.777C121.152 247.777 118.893 247.219 117.105 246.102C115.342 244.96 114.039 243.371 113.195 241.335C112.351 239.274 111.929 236.878 111.929 234.148C111.929 232.137 112.202 230.299 112.748 228.636C113.294 226.948 114.089 225.495 115.131 224.279C116.199 223.062 117.502 222.119 119.042 221.449C120.606 220.778 122.393 220.443 124.404 220.443C125.72 220.443 127.036 220.617 128.352 220.965C129.692 221.287 130.971 221.734 132.187 222.305L130.363 226.886C129.37 226.414 128.364 226.004 127.346 225.657C126.353 225.309 125.372 225.135 124.404 225.135ZM159.474 247.405H153.851V237.127C152.287 237.673 150.847 238.083 149.531 238.356C148.24 238.629 146.936 238.765 145.621 238.765C143.138 238.765 141.189 238.169 139.774 236.978C138.384 235.761 137.688 234.036 137.688 231.801V220.816H143.312V230.2C143.312 231.491 143.61 232.459 144.205 233.105C144.801 233.75 145.807 234.073 147.222 234.073C148.265 234.073 149.307 233.961 150.35 233.738C151.393 233.514 152.56 233.179 153.851 232.732V220.816H159.474V247.405ZM183.7 247.405H168.394V220.816H183.7V225.433H174.018V231.28H183.03V235.898H174.018V242.75H183.7V247.405ZM169.996 215.602C169.996 214.733 170.244 214.112 170.74 213.74C171.237 213.343 171.833 213.144 172.528 213.144C173.223 213.144 173.819 213.343 174.315 213.74C174.837 214.112 175.097 214.733 175.097 215.602C175.097 216.421 174.837 217.03 174.315 217.427C173.819 217.824 173.223 218.023 172.528 218.023C171.833 218.023 171.237 217.824 170.74 217.427C170.244 217.03 169.996 216.421 169.996 215.602ZM177.332 215.602C177.332 214.733 177.58 214.112 178.077 213.74C178.573 213.343 179.181 213.144 179.901 213.144C180.597 213.144 181.192 213.343 181.689 213.74C182.21 214.112 182.471 214.733 182.471 215.602C182.471 216.421 182.21 217.03 181.689 217.427C181.192 217.824 180.597 218.023 179.901 218.023C179.206 218.023 178.598 217.824 178.077 217.427C177.58 217.03 177.332 216.421 177.332 215.602ZM201.708 247.405H196.085V225.508H188.86V220.816H208.933V225.508H201.708V247.405ZM237.15 225.135C236.082 225.135 235.126 225.347 234.282 225.769C233.463 226.191 232.768 226.799 232.197 227.593C231.626 228.363 231.191 229.306 230.893 230.424C230.62 231.541 230.484 232.795 230.484 234.185C230.484 236.072 230.707 237.685 231.154 239.026C231.626 240.342 232.358 241.347 233.351 242.042C234.344 242.738 235.611 243.085 237.15 243.085C238.242 243.085 239.322 242.961 240.39 242.713C241.482 242.464 242.661 242.117 243.927 241.67V246.4C242.761 246.871 241.606 247.219 240.464 247.442C239.322 247.666 238.044 247.777 236.628 247.777C233.897 247.777 231.638 247.219 229.851 246.102C228.088 244.96 226.785 243.371 225.941 241.335C225.096 239.274 224.674 236.878 224.674 234.148C224.674 232.137 224.947 230.299 225.494 228.636C226.04 226.948 226.834 225.495 227.877 224.279C228.945 223.062 230.248 222.119 231.787 221.449C233.351 220.778 235.139 220.443 237.15 220.443C238.466 220.443 239.781 220.617 241.097 220.965C242.438 221.287 243.716 221.734 244.933 222.305L243.108 226.886C242.115 226.414 241.11 226.004 240.092 225.657C239.099 225.309 238.118 225.135 237.15 225.135ZM262.053 247.405H256.43V225.508H249.205V220.816H269.277V225.508H262.053V247.405ZM299.016 234.073C299.016 236.134 298.756 238.008 298.234 239.696C297.738 241.36 296.968 242.8 295.925 244.016C294.907 245.233 293.592 246.164 291.978 246.809C290.389 247.455 288.515 247.777 286.355 247.777C284.195 247.777 282.308 247.455 280.694 246.809C279.105 246.139 277.789 245.208 276.747 244.016C275.729 242.8 274.959 241.347 274.438 239.659C273.941 237.971 273.693 236.096 273.693 234.036C273.693 231.28 274.14 228.884 275.034 226.849C275.952 224.813 277.343 223.236 279.205 222.119C281.091 220.977 283.487 220.406 286.392 220.406C289.272 220.406 291.643 220.977 293.505 222.119C295.367 223.236 296.745 224.825 297.638 226.886C298.557 228.922 299.016 231.317 299.016 234.073ZM279.614 234.073C279.614 235.935 279.85 237.536 280.322 238.877C280.793 240.218 281.526 241.248 282.519 241.968C283.512 242.688 284.791 243.048 286.355 243.048C287.968 243.048 289.259 242.688 290.228 241.968C291.221 241.248 291.941 240.218 292.387 238.877C292.859 237.536 293.095 235.935 293.095 234.073C293.095 231.268 292.574 229.071 291.531 227.482C290.488 225.893 288.775 225.098 286.392 225.098C284.803 225.098 283.512 225.458 282.519 226.178C281.526 226.898 280.793 227.928 280.322 229.269C279.85 230.61 279.614 232.211 279.614 234.073ZM306.758 220.816H311.823V233.663C311.823 234.284 311.811 234.979 311.786 235.749C311.761 236.519 311.736 237.276 311.711 238.021C311.686 238.74 311.662 239.374 311.637 239.92C311.612 240.441 311.587 240.801 311.562 241H311.674L323.963 220.816H330.704V247.405H325.676V234.632C325.676 233.961 325.689 233.229 325.714 232.435C325.738 231.615 325.763 230.833 325.788 230.088C325.838 229.344 325.875 228.698 325.9 228.152C325.949 227.581 325.987 227.209 326.011 227.035H325.862L313.536 247.405H306.758V220.816ZM350.897 247.405L344.491 226.551H344.342C344.367 227.047 344.405 227.792 344.454 228.785C344.504 229.778 344.554 230.846 344.603 231.988C344.653 233.105 344.678 234.123 344.678 235.041V247.405H339.65V220.816H347.322L353.615 241.149H353.727L360.393 220.816H368.064V247.405H362.814V234.818C362.814 233.974 362.826 233.006 362.851 231.913C362.9 230.821 362.938 229.79 362.962 228.822C363.012 227.829 363.049 227.084 363.074 226.588H362.925L356.073 247.405H350.897ZM401.147 234.073C401.147 236.134 400.886 238.008 400.365 239.696C399.868 241.36 399.099 242.8 398.056 244.016C397.038 245.233 395.722 246.164 394.109 246.809C392.52 247.455 390.645 247.777 388.485 247.777C386.325 247.777 384.439 247.455 382.825 246.809C381.236 246.139 379.92 245.208 378.877 244.016C377.859 242.8 377.09 241.347 376.568 239.659C376.072 237.971 375.824 236.096 375.824 234.036C375.824 231.28 376.271 228.884 377.164 226.849C378.083 224.813 379.473 223.236 381.335 222.119C383.222 220.977 385.618 220.406 388.523 220.406C391.402 220.406 393.773 220.977 395.635 222.119C397.497 223.236 398.875 224.825 399.769 226.886C400.688 228.922 401.147 231.317 401.147 234.073ZM381.745 234.073C381.745 235.935 381.981 237.536 382.452 238.877C382.924 240.218 383.656 241.248 384.65 241.968C385.643 242.688 386.921 243.048 388.485 243.048C390.099 243.048 391.39 242.688 392.358 241.968C393.351 241.248 394.071 240.218 394.518 238.877C394.99 237.536 395.226 235.935 395.226 234.073C395.226 231.268 394.704 229.071 393.662 227.482C392.619 225.893 390.906 225.098 388.523 225.098C386.934 225.098 385.643 225.458 384.65 226.178C383.656 226.898 382.924 227.928 382.452 229.269C381.981 230.61 381.745 232.211 381.745 234.073ZM420.173 225.135C419.105 225.135 418.149 225.347 417.305 225.769C416.486 226.191 415.791 226.799 415.22 227.593C414.649 228.363 414.214 229.306 413.916 230.424C413.643 231.541 413.507 232.795 413.507 234.185C413.507 236.072 413.73 237.685 414.177 239.026C414.649 240.342 415.381 241.347 416.374 242.042C417.367 242.738 418.633 243.085 420.173 243.085C421.265 243.085 422.345 242.961 423.413 242.713C424.505 242.464 425.684 242.117 426.95 241.67V246.4C425.784 246.871 424.629 247.219 423.487 247.442C422.345 247.666 421.066 247.777 419.651 247.777C416.92 247.777 414.661 247.219 412.874 246.102C411.111 244.96 409.808 243.371 408.963 241.335C408.119 239.274 407.697 236.878 407.697 234.148C407.697 232.137 407.97 230.299 408.517 228.636C409.063 226.948 409.857 225.495 410.9 224.279C411.968 223.062 413.271 222.119 414.81 221.449C416.374 220.778 418.162 220.443 420.173 220.443C421.489 220.443 422.804 220.617 424.12 220.965C425.461 221.287 426.739 221.734 427.956 222.305L426.131 226.886C425.138 226.414 424.133 226.004 423.115 225.657C422.122 225.309 421.141 225.135 420.173 225.135ZM445.076 247.405H439.453V225.508H432.228V220.816H452.3V225.508H445.076V247.405ZM458.635 220.816H463.7V233.663C463.7 234.284 463.687 234.979 463.662 235.749C463.638 236.519 463.613 237.276 463.588 238.021C463.563 238.74 463.538 239.374 463.513 239.92C463.489 240.441 463.464 240.801 463.439 241H463.551L475.84 220.816H482.58V247.405H477.553V234.632C477.553 233.961 477.565 233.229 477.59 232.435C477.615 231.615 477.64 230.833 477.665 230.088C477.714 229.344 477.752 228.698 477.776 228.152C477.826 227.581 477.863 227.209 477.888 227.035H477.739L465.413 247.405H458.635V220.816ZM67.2537 324.405V323.014L69.0532 322.705V310.042L67.2537 309.733V308.331H73.0276V309.733L71.2281 310.042V315.595H78.9119V310.042L77.1124 309.733V308.331H78.9119H81.0868H82.8864V309.733L81.0868 310.042V322.705L82.8864 323.014V324.405H77.1124V323.014L78.9119 322.705V317.306H71.2281V322.705L73.0276 323.014V324.405H67.2537ZM85.6839 324.405V323.014L86.8762 322.848L92.4956 308.331H94.3614L99.8814 322.848L101.063 323.014V324.405H96.4479V323.014L97.6623 322.804L96.6025 319.845H90.1662L89.0732 322.804L90.2876 323.014V324.405H85.6839ZM90.8396 318.024H95.9401L93.5775 311.488L93.4451 311.124H93.3788L93.2463 311.488L90.8396 318.024ZM103.827 324.405V323.014L105.627 322.705V310.042L103.827 309.733V308.331H107.802H109.601V309.733L107.802 310.042V322.705H113.233V310.042L111.434 309.733V308.331H117.197V309.733L115.397 310.042V322.705H120.807V310.042L119.007 309.733V308.331H120.807H122.982H124.781V309.733L122.982 310.042V322.705L124.781 323.014V324.405H103.827ZM127.457 324.405V323.014L129.257 322.705V310.042L127.457 309.733V308.331H129.257H131.432H133.231V309.733L131.432 310.042V319.305L131.498 319.327L139.226 311.058V310.042L137.426 309.733V308.331H139.226H141.401H143.2V309.733L141.401 310.042V322.705L143.2 323.014V324.405H137.426V323.014L139.226 322.705V313.74L139.16 313.718L131.432 321.998V322.705L133.231 323.014V324.405H127.457ZM160.034 324.637C158.422 324.637 157.075 324.284 155.993 323.577C154.919 322.87 154.109 321.903 153.565 320.673C153.027 319.444 152.759 318.05 152.759 316.489V316.257C152.759 314.682 153.042 313.284 153.609 312.062C154.176 310.833 154.989 309.865 156.049 309.159C157.109 308.452 158.374 308.099 159.846 308.099C160.884 308.099 161.834 308.261 162.695 308.585C163.556 308.908 164.27 309.321 164.837 309.821V313.288H163.103L162.871 310.748C162.636 310.564 162.364 310.41 162.054 310.285C161.753 310.16 161.414 310.064 161.039 309.998C160.671 309.932 160.27 309.898 159.835 309.898C158.783 309.898 157.892 310.171 157.164 310.715C156.435 311.253 155.883 311.996 155.508 312.945C155.132 313.895 154.945 314.992 154.945 316.235V316.489C154.945 317.836 155.143 318.988 155.541 319.945C155.946 320.894 156.531 321.619 157.296 322.12C158.069 322.62 159.007 322.87 160.111 322.87C160.627 322.87 161.131 322.808 161.624 322.683C162.117 322.558 162.526 322.396 162.849 322.197L163.092 319.956H164.792V323.445C164.189 323.82 163.468 324.114 162.629 324.328C161.79 324.534 160.925 324.637 160.034 324.637ZM168.451 324.405V323.014L170.251 322.705V310.042L168.451 309.733V308.331H184.216V309.733L182.417 310.042V322.705L184.216 323.014V324.405H178.442V323.014L180.242 322.705V310.042H172.425V322.705L174.225 323.014V324.405H168.451ZM187.025 324.405V323.014L188.824 322.705V310.042L187.025 309.733V308.331H198.926V312.195H197.182L196.939 310.009H190.999V315.242H196.928V316.953H190.999V322.771H197.292L197.535 320.552H199.268V324.405H187.025ZM216.44 328.28V324.405H202.529V323.014L204.329 322.705V310.042L202.529 309.733V308.331H208.303V309.733L206.504 310.042V322.705H214.32V310.042L212.521 309.733V308.331H218.295V309.733L216.495 310.042V322.705H218.593V328.28H216.44ZM221.258 324.405V323.014L223.057 322.705V310.042L221.258 309.733V308.331H223.057H225.232H227.032V309.733L225.232 310.042V319.305L225.298 319.327L233.026 311.058V310.042L231.227 309.733V308.331H233.026H235.201H237.001V309.733L235.201 310.042V322.705L237.001 323.014V324.405H231.227V323.014L233.026 322.705V313.74L232.96 313.718L225.232 321.998V322.705L227.032 323.014V324.405H221.258ZM239.688 324.405V323.014L240.88 322.848L246.5 308.331H248.366L253.886 322.848L255.067 323.014V324.405H250.452V323.014L251.666 322.804L250.607 319.845H244.17L243.077 322.804L244.292 323.014V324.405H239.688ZM244.844 318.024H249.944L247.582 311.488L247.449 311.124H247.383L247.25 311.488L244.844 318.024ZM257.809 324.405V322.705H258.251C258.751 322.705 259.171 322.587 259.509 322.352C259.855 322.109 260.135 321.722 260.348 321.192C260.569 320.655 260.742 319.956 260.867 319.095C260.992 318.226 261.081 317.163 261.132 315.904L261.397 310.031L259.675 309.733V308.331H273.089V309.733L271.289 310.042V322.705L273.089 323.014V324.405H267.315V323.014L269.114 322.705V310.042H263.561L263.296 315.904C263.23 317.413 263.097 318.705 262.899 319.779C262.7 320.854 262.409 321.733 262.026 322.418C261.651 323.102 261.165 323.606 260.569 323.93C259.973 324.247 259.244 324.405 258.383 324.405H257.809ZM275.853 324.405V323.014L277.653 322.705V310.042L275.853 309.733V308.331H277.653H279.827H281.627V309.733L279.827 310.042V319.305L279.894 319.327L287.622 311.058V310.042L285.822 309.733V308.331H287.622H289.797H291.596V309.733L289.797 310.042V322.705L291.596 323.014V324.405H285.822V323.014L287.622 322.705V313.74L287.555 313.718L279.827 321.998V322.705L281.627 323.014V324.405H275.853ZM301.669 324.637C300.057 324.637 298.71 324.284 297.628 323.577C296.554 322.87 295.744 321.903 295.2 320.673C294.662 319.444 294.394 318.05 294.394 316.489V316.257C294.394 314.682 294.677 313.284 295.244 312.062C295.81 310.833 296.624 309.865 297.684 309.159C298.743 308.452 300.009 308.099 301.481 308.099C302.519 308.099 303.469 308.261 304.33 308.585C305.191 308.908 305.905 309.321 306.471 309.821V313.288H304.738L304.506 310.748C304.271 310.564 303.998 310.41 303.689 310.285C303.388 310.16 303.049 310.064 302.674 309.998C302.306 309.932 301.905 309.898 301.47 309.898C300.418 309.898 299.527 310.171 298.799 310.715C298.07 311.253 297.518 311.996 297.143 312.945C296.767 313.895 296.58 314.992 296.58 316.235V316.489C296.58 317.836 296.778 318.988 297.176 319.945C297.581 320.894 298.166 321.619 298.931 322.12C299.704 322.62 300.642 322.87 301.746 322.87C302.262 322.87 302.766 322.808 303.259 322.683C303.752 322.558 304.16 322.396 304.484 322.197L304.727 319.956H306.427V323.445C305.824 323.82 305.102 324.114 304.263 324.328C303.424 324.534 302.56 324.637 301.669 324.637ZM313.762 324.405V323.014L315.562 322.705V309.976H311.919L311.598 312.206H309.965V308.331H323.323V312.206H321.711L321.38 309.976H317.737V322.705L319.536 323.014V324.405H313.762ZM326.33 324.405V323.014L328.13 322.705V310.042L326.33 309.733V308.331H332.104V309.733L330.305 310.042V314.911H334.268C335.416 314.911 336.391 315.102 337.194 315.485C338.003 315.867 338.621 316.412 339.048 317.119C339.475 317.818 339.689 318.649 339.689 319.614C339.689 320.578 339.475 321.421 339.048 322.142C338.621 322.863 338.003 323.422 337.194 323.82C336.391 324.21 335.416 324.405 334.268 324.405H326.33ZM330.305 322.705H334.268C335.357 322.705 336.171 322.41 336.708 321.822C337.245 321.233 337.514 320.489 337.514 319.592C337.514 318.723 337.245 318.013 336.708 317.461C336.171 316.901 335.357 316.622 334.268 316.622H330.305V322.705ZM340.042 324.405V323.014L341.841 322.705V310.042L340.042 309.733V308.331H345.816V309.733L344.016 310.042V322.705L345.816 323.014V324.405H340.042ZM355.209 324.405V323.014L357.008 322.705V310.042L355.209 309.733V308.331H370.974V309.733L369.174 310.042V322.705L370.974 323.014V324.405H365.2V323.014L367 322.705V310.042H359.183V322.705L360.983 323.014V324.405H355.209ZM380.34 324.637C379.303 324.637 378.372 324.438 377.547 324.041C376.723 323.643 376.02 323.084 375.439 322.363C374.864 321.634 374.423 320.773 374.114 319.779C373.812 318.786 373.661 317.689 373.661 316.489V316.257C373.661 315.065 373.812 313.972 374.114 312.979C374.423 311.978 374.864 311.113 375.439 310.384C376.02 309.656 376.723 309.092 377.547 308.695C378.372 308.298 379.303 308.099 380.34 308.099C381.437 308.099 382.401 308.298 383.233 308.695C384.065 309.092 384.76 309.656 385.319 310.384C385.886 311.113 386.313 311.978 386.6 312.979C386.887 313.972 387.031 315.065 387.031 316.257V316.489C387.031 317.689 386.887 318.786 386.6 319.779C386.313 320.773 385.886 321.634 385.319 322.363C384.76 323.084 384.065 323.643 383.233 324.041C382.401 324.438 381.437 324.637 380.34 324.637ZM380.34 322.826C381.408 322.826 382.269 322.561 382.924 322.031C383.586 321.501 384.072 320.762 384.381 319.812C384.69 318.856 384.845 317.748 384.845 316.489V316.235C384.845 314.984 384.686 313.888 384.37 312.945C384.061 311.996 383.575 311.256 382.913 310.726C382.25 310.189 381.393 309.92 380.34 309.92C379.376 309.92 378.559 310.189 377.889 310.726C377.22 311.264 376.712 312.007 376.366 312.956C376.02 313.899 375.847 314.992 375.847 316.235V316.489C375.847 317.74 376.02 318.844 376.366 319.801C376.712 320.751 377.22 321.494 377.889 322.031C378.559 322.561 379.376 322.826 380.34 322.826ZM391.02 324.405V323.014L392.82 322.705V310.042L391.02 309.733V308.331H392.82H395.724L400.901 320.53H400.968L405.98 308.331H410.826V309.733L409.027 310.042V322.705L410.826 323.014V324.405H405.052V323.014L406.951 322.705V318.046V311.3L406.896 311.289L401.674 323.831H400.228L394.829 311.312L394.774 311.323L394.851 318.046V322.705L396.794 323.014V324.405H391.02ZM420.447 324.637C419.409 324.637 418.478 324.438 417.653 324.041C416.829 323.643 416.126 323.084 415.545 322.363C414.971 321.634 414.529 320.773 414.22 319.779C413.918 318.786 413.767 317.689 413.767 316.489V316.257C413.767 315.065 413.918 313.972 414.22 312.979C414.529 311.978 414.971 311.113 415.545 310.384C416.126 309.656 416.829 309.092 417.653 308.695C418.478 308.298 419.409 308.099 420.447 308.099C421.543 308.099 422.507 308.298 423.339 308.695C424.171 309.092 424.866 309.656 425.426 310.384C425.992 311.113 426.419 311.978 426.706 312.979C426.993 313.972 427.137 315.065 427.137 316.257V316.489C427.137 317.689 426.993 318.786 426.706 319.779C426.419 320.773 425.992 321.634 425.426 322.363C424.866 323.084 424.171 323.643 423.339 324.041C422.507 324.438 421.543 324.637 420.447 324.637ZM420.447 322.826C421.514 322.826 422.375 322.561 423.03 322.031C423.692 321.501 424.178 320.762 424.487 319.812C424.796 318.856 424.951 317.748 424.951 316.489V316.235C424.951 314.984 424.793 313.888 424.476 312.945C424.167 311.996 423.681 311.256 423.019 310.726C422.357 310.189 421.499 309.92 420.447 309.92C419.482 309.92 418.665 310.189 417.996 310.726C417.326 311.264 416.818 312.007 416.472 312.956C416.126 313.899 415.953 314.992 415.953 316.235V316.489C415.953 317.74 416.126 318.844 416.472 319.801C416.818 320.751 417.326 321.494 417.996 322.031C418.665 322.561 419.482 322.826 420.447 322.826ZM430.939 324.405V323.014L432.739 322.705V310.042L430.939 309.733V308.331H442.597V311.886H440.732L440.566 310.042H434.913V322.705L436.713 323.014V324.405H430.939ZM448.917 324.637C448.733 324.637 448.516 324.626 448.265 324.604C448.022 324.582 447.868 324.56 447.802 324.537L447.868 322.893C447.941 322.907 448.1 322.918 448.343 322.926C448.585 322.933 448.769 322.937 448.895 322.937C449.417 322.937 449.789 322.808 450.01 322.55C450.238 322.285 450.495 321.855 450.782 321.259L451.213 320.342L446.543 309.932L445.24 309.733V308.331H450.286V309.733L448.939 309.943L451.379 315.849L452.185 317.924H452.251L455.265 309.954L453.863 309.733V308.331H458.996V309.733L457.738 309.92L452.781 321.766C452.494 322.407 452.196 322.94 451.886 323.367C451.577 323.794 451.191 324.114 450.727 324.328C450.264 324.534 449.66 324.637 448.917 324.637ZM465.845 324.405V323.014L467.645 322.705V309.976H464.002L463.682 312.206H462.048V308.331H475.406V312.206H473.794L473.463 309.976H469.82V322.705L471.619 323.014V324.405H465.845ZM48.0683 351.637C47.0305 351.637 46.0995 351.438 45.2752 351.041C44.4508 350.643 43.748 350.084 43.1665 349.363C42.5924 348.634 42.1508 347.773 41.8417 346.779C41.54 345.786 41.3891 344.689 41.3891 343.489V343.257C41.3891 342.065 41.54 340.972 41.8417 339.979C42.1508 338.978 42.5924 338.113 43.1665 337.384C43.748 336.656 44.4508 336.092 45.2752 335.695C46.0995 335.298 47.0305 335.099 48.0683 335.099C49.1649 335.099 50.1291 335.298 50.9608 335.695C51.7925 336.092 52.488 336.656 53.0474 337.384C53.6141 338.113 54.041 338.978 54.328 339.979C54.615 340.972 54.7586 342.065 54.7586 343.257V343.489C54.7586 344.689 54.615 345.786 54.328 346.779C54.041 347.773 53.6141 348.634 53.0474 349.363C52.488 350.084 51.7925 350.643 50.9608 351.041C50.1291 351.438 49.1649 351.637 48.0683 351.637ZM48.0683 349.826C49.1355 349.826 49.9966 349.561 50.6517 349.031C51.3141 348.501 51.7998 347.762 52.109 346.812C52.4181 345.856 52.5726 344.748 52.5726 343.489V343.235C52.5726 341.984 52.4144 340.888 52.0979 339.945C51.7888 338.996 51.303 338.256 50.6406 337.726C49.9782 337.189 49.1208 336.92 48.0683 336.92C47.1041 336.92 46.2872 337.189 45.6174 337.726C44.9476 338.264 44.4398 339.007 44.0939 339.956C43.748 340.899 43.575 341.992 43.575 343.235V343.489C43.575 344.74 43.748 345.844 44.0939 346.801C44.4398 347.751 44.9476 348.494 45.6174 349.031C46.2872 349.561 47.1041 349.826 48.0683 349.826ZM58.5608 351.405V350.014L60.3603 349.705V337.042L58.5608 336.733V335.331H74.3259V336.733L72.5264 337.042V349.705L74.3259 350.014V351.405H68.552V350.014L70.3515 349.705V337.042H62.5352V349.705L64.3347 350.014V351.405H58.5608ZM77.1345 351.405V350.014L78.934 349.705V337.042L77.1345 336.733V335.331H78.934H84.5203C85.6685 335.331 86.6473 335.533 87.4569 335.938C88.2665 336.335 88.8848 336.895 89.3117 337.616C89.7386 338.337 89.952 339.18 89.952 340.144C89.952 341.116 89.7386 341.962 89.3117 342.683C88.8848 343.405 88.2665 343.964 87.4569 344.361C86.6473 344.759 85.6685 344.958 84.5203 344.958H81.1089V349.705L82.9084 350.014V351.405H77.1345ZM81.1089 343.257H84.5203C85.6096 343.257 86.4229 342.967 86.9601 342.385C87.5048 341.796 87.7771 341.057 87.7771 340.166C87.7771 339.276 87.5048 338.532 86.9601 337.936C86.4229 337.34 85.6096 337.042 84.5203 337.042H81.1089V343.257ZM92.6391 351.405V350.014L94.4387 349.705V337.042L92.6391 336.733V335.331H104.54V339.195H102.796L102.553 337.009H96.6136V342.242H102.542V343.953H96.6136V349.771H102.906L103.149 347.552H104.883V351.405H92.6391ZM108.221 355.368L107.901 349.705H109.281C109.656 349.271 110.013 348.711 110.352 348.027C110.698 347.342 110.985 346.496 111.213 345.488C111.441 344.472 111.57 343.254 111.599 341.833L111.864 337.031L110.164 336.733V335.331H123.434V336.733L121.635 337.042V349.705H123.843L123.622 355.346H121.668V351.405H110.076V355.368H108.221ZM111.688 349.705H119.46V337.042H114.05L113.796 341.833C113.752 343.004 113.638 344.082 113.454 345.068C113.27 346.047 113.027 346.926 112.725 347.707C112.424 348.487 112.078 349.153 111.688 349.705ZM126.651 351.405V350.014L128.451 349.705V337.042L126.651 336.733V335.331H138.552V339.195H136.808L136.565 337.009H130.626V342.242H136.554V343.953H130.626V349.771H136.919L137.161 347.552H138.895V351.405H126.651ZM141.935 351.405V349.705H142.377C142.877 349.705 143.297 349.587 143.635 349.352C143.981 349.109 144.261 348.722 144.474 348.192C144.695 347.655 144.868 346.956 144.993 346.095C145.118 345.226 145.207 344.163 145.258 342.904L145.523 337.031L143.801 336.733V335.331H157.215V336.733L155.415 337.042V349.705L157.215 350.014V351.405H151.441V350.014L153.24 349.705V337.042H147.687L147.422 342.904C147.356 344.413 147.223 345.705 147.025 346.779C146.826 347.854 146.535 348.733 146.152 349.418C145.777 350.102 145.291 350.606 144.695 350.93C144.099 351.247 143.37 351.405 142.509 351.405H141.935ZM159.979 351.405V350.014L161.778 349.705V337.042L159.979 336.733V335.331H161.778H163.953H165.753V336.733L163.953 337.042V346.305L164.02 346.327L171.748 338.058V337.042L169.948 336.733V335.331H171.748H173.923H175.722V336.733L173.923 337.042V349.705L175.722 350.014V351.405H169.948V350.014L171.748 349.705V340.74L171.681 340.718L163.953 348.998V349.705L165.753 350.014V351.405H159.979ZM182.494 351.405V350.014L184.294 349.705V336.976H180.65L180.33 339.206H178.696V335.331H192.055V339.206H190.443L190.112 336.976H186.468V349.705L188.268 350.014V351.405H182.494ZM195.239 351.405V350.014L197.038 349.705V337.042L195.239 336.733V335.331H201.013V336.733L199.213 337.042V341.911H203.176C204.325 341.911 205.3 342.102 206.102 342.485C206.912 342.867 207.53 343.412 207.957 344.119C208.384 344.818 208.597 345.649 208.597 346.614C208.597 347.578 208.384 348.421 207.957 349.142C207.53 349.863 206.912 350.422 206.102 350.82C205.3 351.21 204.325 351.405 203.176 351.405H195.239ZM199.213 349.705H203.176C204.266 349.705 205.079 349.41 205.616 348.822C206.154 348.233 206.422 347.489 206.422 346.592C206.422 345.723 206.154 345.013 205.616 344.461C205.079 343.901 204.266 343.622 203.176 343.622H199.213V349.705ZM218.747 351.637C217.135 351.637 215.789 351.284 214.707 350.577C213.632 349.87 212.822 348.903 212.278 347.673C211.741 346.444 211.472 345.05 211.472 343.489V343.257C211.472 341.682 211.755 340.284 212.322 339.062C212.889 337.833 213.702 336.865 214.762 336.159C215.822 335.452 217.088 335.099 218.56 335.099C219.597 335.099 220.547 335.261 221.408 335.585C222.269 335.908 222.983 336.321 223.55 336.821V340.288H221.816L221.585 337.748C221.349 337.564 221.077 337.41 220.768 337.285C220.466 337.16 220.127 337.064 219.752 336.998C219.384 336.932 218.983 336.898 218.549 336.898C217.496 336.898 216.606 337.171 215.877 337.715C215.148 338.253 214.596 338.996 214.221 339.945C213.846 340.895 213.658 341.992 213.658 343.235V343.489C213.658 344.836 213.857 345.988 214.254 346.945C214.659 347.894 215.244 348.619 216.009 349.12C216.782 349.62 217.721 349.87 218.825 349.87C219.34 349.87 219.844 349.808 220.337 349.683C220.83 349.558 221.239 349.396 221.563 349.197L221.805 346.956H223.506V350.445C222.902 350.82 222.181 351.114 221.342 351.328C220.503 351.534 219.638 351.637 218.747 351.637ZM240.732 350.014V351.405H234.947V350.014L236.747 349.705V345.112H233.49L231.072 349.561C230.712 350.187 230.3 350.665 229.836 350.997C229.372 351.328 228.864 351.493 228.312 351.493C228.003 351.493 227.746 351.457 227.54 351.383C227.341 351.309 227.138 351.192 226.932 351.03L227.242 349.495C227.484 349.569 227.709 349.605 227.915 349.605C228.217 349.605 228.478 349.517 228.699 349.341C228.927 349.164 229.144 348.91 229.35 348.579L231.591 344.704L231.624 344.648C230.476 344.273 229.6 343.71 228.997 342.959C228.393 342.201 228.092 341.27 228.092 340.166C228.092 338.635 228.596 337.447 229.604 336.6C230.612 335.754 232.003 335.331 233.777 335.331H240.732V336.733L238.933 337.042V349.705L240.732 350.014ZM233.777 337.042C232.629 337.042 231.757 337.318 231.161 337.87C230.565 338.422 230.266 339.18 230.266 340.144C230.266 341.108 230.568 341.892 231.172 342.496C231.775 343.092 232.64 343.39 233.766 343.39H236.747V337.042H233.777ZM257.644 351.637C256.032 351.637 254.685 351.284 253.603 350.577C252.528 349.87 251.719 348.903 251.174 347.673C250.637 346.444 250.368 345.05 250.368 343.489V343.257C250.368 341.682 250.652 340.284 251.218 339.062C251.785 337.833 252.598 336.865 253.658 336.159C254.718 335.452 255.984 335.099 257.456 335.099C258.494 335.099 259.443 335.261 260.304 335.585C261.165 335.908 261.879 336.321 262.446 336.821V340.288H260.713L260.481 337.748C260.245 337.564 259.973 337.41 259.664 337.285C259.362 337.16 259.024 337.064 258.648 336.998C258.28 336.932 257.879 336.898 257.445 336.898C256.392 336.898 255.502 337.171 254.773 337.715C254.045 338.253 253.493 338.996 253.117 339.945C252.742 340.895 252.554 341.992 252.554 343.235V343.489C252.554 344.836 252.753 345.988 253.15 346.945C253.555 347.894 254.14 348.619 254.906 349.12C255.678 349.62 256.617 349.87 257.721 349.87C258.236 349.87 258.74 349.808 259.233 349.683C259.726 349.558 260.135 349.396 260.459 349.197L260.702 346.956H262.402V350.445C261.798 350.82 261.077 351.114 260.238 351.328C259.399 351.534 258.534 351.637 257.644 351.637ZM279.423 351.637C278.386 351.637 277.455 351.438 276.63 351.041C275.806 350.643 275.103 350.084 274.522 349.363C273.947 348.634 273.506 347.773 273.197 346.779C272.895 345.786 272.744 344.689 272.744 343.489V343.257C272.744 342.065 272.895 340.972 273.197 339.979C273.506 338.978 273.947 338.113 274.522 337.384C275.103 336.656 275.806 336.092 276.63 335.695C277.455 335.298 278.386 335.099 279.423 335.099C280.52 335.099 281.484 335.298 282.316 335.695C283.148 336.092 283.843 336.656 284.402 337.384C284.969 338.113 285.396 338.978 285.683 339.979C285.97 340.972 286.114 342.065 286.114 343.257V343.489C286.114 344.689 285.97 345.786 285.683 346.779C285.396 347.773 284.969 348.634 284.402 349.363C283.843 350.084 283.148 350.643 282.316 351.041C281.484 351.438 280.52 351.637 279.423 351.637ZM279.423 349.826C280.491 349.826 281.352 349.561 282.007 349.031C282.669 348.501 283.155 347.762 283.464 346.812C283.773 345.856 283.928 344.748 283.928 343.489V343.235C283.928 341.984 283.769 340.888 283.453 339.945C283.144 338.996 282.658 338.256 281.996 337.726C281.333 337.189 280.476 336.92 279.423 336.92C278.459 336.92 277.642 337.189 276.972 337.726C276.303 338.264 275.795 339.007 275.449 339.956C275.103 340.899 274.93 341.992 274.93 343.235V343.489C274.93 344.74 275.103 345.844 275.449 346.801C275.795 347.751 276.303 348.494 276.972 349.031C277.642 349.561 278.459 349.826 279.423 349.826ZM289.85 351.405V350.014L291.649 349.705V337.042L289.85 336.733V335.331H295.624V336.733L293.824 337.042V342.573H295.579L299.212 337.34C299.808 336.516 300.327 335.956 300.768 335.662C301.21 335.36 301.721 335.209 302.303 335.209C302.649 335.209 302.939 335.253 303.175 335.342C303.418 335.423 303.672 335.544 303.937 335.706L303.617 337.241C303.418 337.204 303.241 337.174 303.087 337.152C302.939 337.123 302.792 337.108 302.645 337.108C302.299 337.108 302.005 337.2 301.762 337.384C301.526 337.568 301.25 337.881 300.934 338.323L297.478 343.136L302.822 349.738L304.334 350.014V351.405H299.057V350.014L300.282 349.859L300.238 349.804L295.9 344.406H293.824V349.705L295.624 350.014V351.405H289.85ZM312.354 351.637C311.316 351.637 310.385 351.438 309.56 351.041C308.736 350.643 308.033 350.084 307.452 349.363C306.878 348.634 306.436 347.773 306.127 346.779C305.825 345.786 305.674 344.689 305.674 343.489V343.257C305.674 342.065 305.825 340.972 306.127 339.979C306.436 338.978 306.878 338.113 307.452 337.384C308.033 336.656 308.736 336.092 309.56 335.695C310.385 335.298 311.316 335.099 312.354 335.099C313.45 335.099 314.414 335.298 315.246 335.695C316.078 336.092 316.773 336.656 317.333 337.384C317.899 338.113 318.326 338.978 318.613 339.979C318.9 340.972 319.044 342.065 319.044 343.257V343.489C319.044 344.689 318.9 345.786 318.613 346.779C318.326 347.773 317.899 348.634 317.333 349.363C316.773 350.084 316.078 350.643 315.246 351.041C314.414 351.438 313.45 351.637 312.354 351.637ZM312.354 349.826C313.421 349.826 314.282 349.561 314.937 349.031C315.599 348.501 316.085 347.762 316.394 346.812C316.703 345.856 316.858 344.748 316.858 343.489V343.235C316.858 341.984 316.7 340.888 316.383 339.945C316.074 338.996 315.588 338.256 314.926 337.726C314.264 337.189 313.406 336.92 312.354 336.92C311.389 336.92 310.572 337.189 309.903 337.726C309.233 338.264 308.725 339.007 308.379 339.956C308.033 340.899 307.86 341.992 307.86 343.235V343.489C307.86 344.74 308.033 345.844 308.379 346.801C308.725 347.751 309.233 348.494 309.903 349.031C310.572 349.561 311.389 349.826 312.354 349.826ZM322.89 351.405V350.014L324.69 349.705V337.042L322.89 336.733V335.331H328.664V336.733L326.865 337.042V342.595H334.548V337.042L332.749 336.733V335.331H334.548H336.723H338.523V336.733L336.723 337.042V349.705L338.523 350.014V351.405H332.749V350.014L334.548 349.705V344.306H326.865V349.705L328.664 350.014V351.405H322.89ZM350.638 351.405V350.014L352.438 349.705V344.748C351.739 344.961 351.061 345.116 350.406 345.212C349.751 345.307 348.975 345.355 348.077 345.355C346.311 345.355 344.971 344.969 344.058 344.196C343.146 343.423 342.689 342.161 342.689 340.409V337.042L340.89 336.733V335.331H346.664V336.733L344.864 337.042V340.409C344.864 341.624 345.118 342.466 345.626 342.937C346.134 343.401 346.951 343.633 348.077 343.633C348.842 343.633 349.578 343.581 350.285 343.478C350.992 343.375 351.709 343.224 352.438 343.026V337.042L350.638 336.733V335.331H356.423V336.733L354.624 337.042V349.705L356.423 350.014V351.405H350.638ZM358.989 351.405V350.014L360.181 349.848L365.801 335.331H367.666L373.186 349.848L374.368 350.014V351.405H369.753V350.014L370.967 349.804L369.908 346.845H363.471L362.378 349.804L363.593 350.014V351.405H358.989ZM364.145 345.024H369.245L366.883 338.488L366.75 338.124H366.684L366.551 338.488L364.145 345.024ZM378.49 351.405V350.014L380.29 349.705V336.976H376.646L376.326 339.206H374.692V335.331H388.051V339.206H386.439L386.108 336.976H382.464V349.705L384.264 350.014V351.405H378.49ZM391.179 351.405V350.014L392.979 349.705V337.042L391.179 336.733V335.331H403.081V339.195H401.336L401.093 337.009H395.154V342.242H401.082V343.953H395.154V349.771H401.447L401.69 347.552H403.423V351.405H391.179ZM406.463 351.405V349.705H406.905C407.405 349.705 407.825 349.587 408.163 349.352C408.509 349.109 408.789 348.722 409.003 348.192C409.223 347.655 409.396 346.956 409.521 346.095C409.647 345.226 409.735 344.163 409.786 342.904L410.051 337.031L408.329 336.733V335.331H421.743V336.733L419.943 337.042V349.705L421.743 350.014V351.405H415.969V350.014L417.768 349.705V337.042H412.215L411.95 342.904C411.884 344.413 411.751 345.705 411.553 346.779C411.354 347.854 411.063 348.733 410.681 349.418C410.305 350.102 409.819 350.606 409.223 350.93C408.627 351.247 407.899 351.405 407.037 351.405H406.463ZM424.43 351.405V350.014L426.229 349.705V337.042L424.43 336.733V335.331H430.204V336.733L428.404 337.042V341.911H432.368C433.516 341.911 434.491 342.102 435.293 342.485C436.103 342.867 436.721 343.412 437.148 344.119C437.575 344.818 437.788 345.649 437.788 346.614C437.788 347.578 437.575 348.421 437.148 349.142C436.721 349.863 436.103 350.422 435.293 350.82C434.491 351.21 433.516 351.405 432.368 351.405H424.43ZM428.404 349.705H432.368C433.457 349.705 434.27 349.41 434.807 348.822C435.345 348.233 435.613 347.489 435.613 346.592C435.613 345.723 435.345 345.013 434.807 344.461C434.27 343.901 433.457 343.622 432.368 343.622H428.404V349.705ZM440.674 351.405V350.014L442.474 349.705V337.042L440.674 336.733V335.331H446.448V336.733L444.649 337.042V342.595H452.332V337.042L450.533 336.733V335.331H452.332H454.507H456.307V336.733L454.507 337.042V349.705L456.307 350.014V351.405H450.533V350.014L452.332 349.705V344.306H444.649V349.705L446.448 350.014V351.405H440.674ZM459.104 351.405V350.014L460.904 349.705V337.042L459.104 336.733V335.331H464.878V336.733L463.079 337.042V341.911H467.042C468.19 341.911 469.166 342.102 469.968 342.485C470.777 342.867 471.396 343.412 471.823 344.119C472.249 344.818 472.463 345.649 472.463 346.614C472.463 347.578 472.249 348.421 471.823 349.142C471.396 349.863 470.777 350.422 469.968 350.82C469.166 351.21 468.19 351.405 467.042 351.405H459.104ZM463.079 349.705H467.042C468.131 349.705 468.945 349.41 469.482 348.822C470.019 348.233 470.288 347.489 470.288 346.592C470.288 345.723 470.019 345.013 469.482 344.461C468.945 343.901 468.131 343.622 467.042 343.622H463.079V349.705ZM472.816 351.405V350.014L474.616 349.705V337.042L472.816 336.733V335.331H478.59V336.733L476.791 337.042V349.705L478.59 350.014V351.405H472.816ZM481.41 351.405V350.014L483.209 349.705V337.042L481.41 336.733V335.331H483.209H486.113L491.291 347.53H491.357L496.369 335.331H501.216V336.733L499.416 337.042V349.705L501.216 350.014V351.405H495.442V350.014L497.34 349.705V345.046V338.3L497.285 338.289L492.063 350.831H490.617L485.219 338.312L485.163 338.323L485.241 345.046V349.705L487.184 350.014V351.405H481.41ZM41.9366 378.405V377.014L43.7362 376.705V364.042L41.9366 363.733V362.331H43.7362H48.8698C50.5479 362.331 51.858 362.695 52.8 363.424C53.7495 364.145 54.2242 365.231 54.2242 366.68C54.2242 367.394 53.9961 368.035 53.5397 368.601C53.0908 369.161 52.4946 369.577 51.7512 369.849C52.3989 369.981 52.9546 370.243 53.4183 370.633C53.882 371.016 54.2389 371.487 54.4892 372.046C54.7468 372.598 54.8756 373.205 54.8756 373.868C54.8756 375.34 54.3972 376.466 53.4404 377.246C52.4836 378.019 51.1882 378.405 49.5543 378.405H41.9366ZM45.9111 376.705H49.5543C50.5479 376.705 51.317 376.462 51.8616 375.976C52.4136 375.483 52.6896 374.788 52.6896 373.89C52.6896 373.257 52.5866 372.716 52.3805 372.267C52.1818 371.818 51.8727 371.472 51.4532 371.229C51.041 370.986 50.5184 370.865 49.8855 370.865H45.9111V376.705ZM45.9111 369.164H49.4328C50.213 369.164 50.8423 368.94 51.3207 368.491C51.8064 368.035 52.0493 367.416 52.0493 366.636C52.0493 365.768 51.777 365.12 51.2324 364.693C50.6877 364.259 49.9002 364.042 48.8698 364.042H45.9111V369.164ZM57.8829 378.405V377.014L59.6824 376.705V364.042L57.8829 363.733V362.331H59.6824H61.8573H63.6568V363.733L61.8573 364.042V373.305L61.9235 373.327L69.6516 365.058V364.042L67.852 363.733V362.331H69.6516H71.8265H73.626V363.733L71.8265 364.042V376.705L73.626 377.014V378.405H67.852V377.014L69.6516 376.705V367.74L69.5853 367.718L61.8573 375.998V376.705L63.6568 377.014V378.405H57.8829ZM76.7106 382.368L76.3904 376.705H77.7704C78.1458 376.271 78.5027 375.711 78.8413 375.027C79.1872 374.342 79.4743 373.496 79.7024 372.488C79.9306 371.472 80.0594 370.254 80.0888 368.833L80.3538 364.031L78.6536 363.733V362.331H91.9237V363.733L90.1242 364.042V376.705H92.3322L92.1114 382.346H90.1573V378.405H78.5653V382.368H76.7106ZM80.1771 376.705H87.9493V364.042H82.5397L82.2858 368.833C82.2416 370.004 82.1275 371.082 81.9435 372.068C81.7595 373.047 81.5167 373.926 81.2149 374.707C80.9131 375.487 80.5672 376.153 80.1771 376.705ZM101.434 378.637C100.396 378.637 99.4648 378.438 98.6405 378.041C97.8162 377.643 97.1133 377.084 96.5318 376.363C95.9578 375.634 95.5162 374.773 95.207 373.779C94.9053 372.786 94.7544 371.689 94.7544 370.489V370.257C94.7544 369.065 94.9053 367.972 95.207 366.979C95.5162 365.978 95.9578 365.113 96.5318 364.384C97.1133 363.656 97.8162 363.092 98.6405 362.695C99.4648 362.298 100.396 362.099 101.434 362.099C102.53 362.099 103.494 362.298 104.326 362.695C105.158 363.092 105.853 363.656 106.413 364.384C106.979 365.113 107.406 365.978 107.693 366.979C107.98 367.972 108.124 369.065 108.124 370.257V370.489C108.124 371.689 107.98 372.786 107.693 373.779C107.406 374.773 106.979 375.634 106.413 376.363C105.853 377.084 105.158 377.643 104.326 378.041C103.494 378.438 102.53 378.637 101.434 378.637ZM101.434 376.826C102.501 376.826 103.362 376.561 104.017 376.031C104.679 375.501 105.165 374.762 105.474 373.812C105.783 372.856 105.938 371.748 105.938 370.489V370.235C105.938 368.984 105.78 367.888 105.463 366.945C105.154 365.996 104.668 365.256 104.006 364.726C103.344 364.189 102.486 363.92 101.434 363.92C100.469 363.92 99.6525 364.189 98.9827 364.726C98.313 365.264 97.8051 366.007 97.4592 366.956C97.1133 367.899 96.9403 368.992 96.9403 370.235V370.489C96.9403 371.74 97.1133 372.844 97.4592 373.801C97.8051 374.751 98.313 375.494 98.9827 376.031C99.6525 376.561 100.469 376.826 101.434 376.826ZM112.114 378.405V377.014L113.913 376.705V364.042L112.114 363.733V362.331H113.913H116.817L121.995 374.53H122.061L127.073 362.331H131.92V363.733L130.12 364.042V376.705L131.92 377.014V378.405H126.146V377.014L128.045 376.705V372.046V365.3L127.989 365.289L122.767 377.831H121.321L115.923 365.312L115.867 365.323L115.945 372.046V376.705L117.888 377.014V378.405H112.114ZM141.699 378.405V377.014L143.498 376.705V364.042L141.699 363.733V362.331H157.464V363.733L155.665 364.042V376.705L157.464 377.014V378.405H151.69V377.014L153.49 376.705V364.042H145.673V376.705L147.473 377.014V378.405H141.699ZM160.273 378.405V377.014L162.072 376.705V364.042L160.273 363.733V362.331H162.072H167.658C168.807 362.331 169.785 362.533 170.595 362.938C171.405 363.335 172.023 363.895 172.45 364.616C172.877 365.337 173.09 366.18 173.09 367.144C173.09 368.116 172.877 368.962 172.45 369.683C172.023 370.405 171.405 370.964 170.595 371.361C169.785 371.759 168.807 371.958 167.658 371.958H164.247V376.705L166.047 377.014V378.405H160.273ZM164.247 370.257H167.658C168.748 370.257 169.561 369.967 170.098 369.385C170.643 368.796 170.915 368.057 170.915 367.166C170.915 366.276 170.643 365.532 170.098 364.936C169.561 364.34 168.748 364.042 167.658 364.042H164.247V370.257ZM182.622 378.637C181.584 378.637 180.653 378.438 179.829 378.041C179.005 377.643 178.302 377.084 177.72 376.363C177.146 375.634 176.705 374.773 176.395 373.779C176.094 372.786 175.943 371.689 175.943 370.489V370.257C175.943 369.065 176.094 367.972 176.395 366.979C176.705 365.978 177.146 365.113 177.72 364.384C178.302 363.656 179.005 363.092 179.829 362.695C180.653 362.298 181.584 362.099 182.622 362.099C183.719 362.099 184.683 362.298 185.515 362.695C186.346 363.092 187.042 363.656 187.601 364.384C188.168 365.113 188.595 365.978 188.882 366.979C189.169 367.972 189.312 369.065 189.312 370.257V370.489C189.312 371.689 189.169 372.786 188.882 373.779C188.595 374.773 188.168 375.634 187.601 376.363C187.042 377.084 186.346 377.643 185.515 378.041C184.683 378.438 183.719 378.637 182.622 378.637ZM182.622 376.826C183.689 376.826 184.55 376.561 185.205 376.031C185.868 375.501 186.354 374.762 186.663 373.812C186.972 372.856 187.126 371.748 187.126 370.489V370.235C187.126 368.984 186.968 367.888 186.652 366.945C186.343 365.996 185.857 365.256 185.194 364.726C184.532 364.189 183.675 363.92 182.622 363.92C181.658 363.92 180.841 364.189 180.171 364.726C179.501 365.264 178.994 366.007 178.648 366.956C178.302 367.899 178.129 368.992 178.129 370.235V370.489C178.129 371.74 178.302 372.844 178.648 373.801C178.994 374.751 179.501 375.494 180.171 376.031C180.841 376.561 181.658 376.826 182.622 376.826ZM193.159 378.405V377.014L194.958 376.705V364.042L193.159 363.733V362.331H205.06V366.195H203.316L203.073 364.009H197.133V369.242H203.062V370.953H197.133V376.771H203.426L203.669 374.552H205.402V378.405H193.159ZM208.597 378.405V377.014L210.397 376.705V364.042L208.597 363.733V362.331H214.371V363.733L212.571 364.042V369.573H214.327L217.959 364.34C218.555 363.516 219.074 362.956 219.516 362.662C219.957 362.36 220.469 362.209 221.05 362.209C221.396 362.209 221.687 362.253 221.922 362.342C222.165 362.423 222.419 362.544 222.684 362.706L222.364 364.241C222.165 364.204 221.989 364.174 221.834 364.152C221.687 364.123 221.54 364.108 221.392 364.108C221.047 364.108 220.752 364.2 220.509 364.384C220.274 364.568 219.998 364.881 219.681 365.323L216.226 370.136L221.569 376.738L223.082 377.014V378.405H217.804V377.014L219.03 376.859L218.986 376.804L214.647 371.406H212.571V376.705L214.371 377.014V378.405H208.597ZM229.831 378.405V377.014L231.631 376.705V363.976H227.988L227.668 366.206H226.034V362.331H239.392V366.206H237.78L237.449 363.976H233.806V376.705L235.605 377.014V378.405H229.831ZM239.75 378.405V377.014L240.942 376.848L246.562 362.331H248.427L253.947 376.848L255.129 377.014V378.405H250.514V377.014L251.728 376.804L250.668 373.845H244.232L243.139 376.804L244.354 377.014V378.405H239.75ZM244.906 372.024H250.006L247.643 365.488L247.511 365.124H247.445L247.312 365.488L244.906 372.024ZM264.654 378.405V377.014L266.454 376.705V364.042L264.654 363.733V362.331H266.454H268.628H270.428V363.733L268.628 364.042V373.305L268.695 373.327L276.423 365.058V364.042L274.623 363.733V362.331H276.423H278.598H280.397V363.733L278.598 364.042V376.705L280.397 377.014V378.405H274.623V377.014L276.423 376.705V367.74L276.356 367.718L268.628 375.998V376.705L270.428 377.014V378.405H264.654ZM289.967 378.405V377.014L291.766 376.705V364.042L289.967 363.733V362.331H291.766H297.352C298.501 362.331 299.479 362.533 300.289 362.938C301.099 363.335 301.717 363.895 302.144 364.616C302.571 365.337 302.784 366.18 302.784 367.144C302.784 368.116 302.571 368.962 302.144 369.683C301.717 370.405 301.099 370.964 300.289 371.361C299.479 371.759 298.501 371.958 297.352 371.958H293.941V376.705L295.741 377.014V378.405H289.967ZM293.941 370.257H297.352C298.442 370.257 299.255 369.967 299.792 369.385C300.337 368.796 300.609 368.057 300.609 367.166C300.609 366.276 300.337 365.532 299.792 364.936C299.255 364.34 298.442 364.042 297.352 364.042H293.941V370.257ZM302.921 378.405V377.014L304.113 376.848L309.733 362.331H311.598L317.118 376.848L318.3 377.014V378.405H313.685V377.014L314.899 376.804L313.84 373.845H307.403L306.31 376.804L307.525 377.014V378.405H302.921ZM308.077 372.024H313.177L310.815 365.488L310.682 365.124H310.616L310.483 365.488L308.077 372.024ZM327.6 378.637C325.988 378.637 324.641 378.284 323.559 377.577C322.485 376.87 321.675 375.903 321.13 374.673C320.593 373.444 320.324 372.05 320.324 370.489V370.257C320.324 368.682 320.608 367.284 321.175 366.062C321.741 364.833 322.555 363.865 323.614 363.159C324.674 362.452 325.94 362.099 327.412 362.099C328.45 362.099 329.399 362.261 330.261 362.585C331.122 362.908 331.836 363.321 332.402 363.821V367.288H330.669L330.437 364.748C330.202 364.564 329.929 364.41 329.62 364.285C329.318 364.16 328.98 364.064 328.605 363.998C328.237 363.932 327.835 363.898 327.401 363.898C326.349 363.898 325.458 364.171 324.729 364.715C324.001 365.253 323.449 365.996 323.073 366.945C322.698 367.895 322.51 368.992 322.51 370.235V370.489C322.51 371.836 322.709 372.988 323.107 373.945C323.511 374.894 324.097 375.619 324.862 376.12C325.635 376.62 326.573 376.87 327.677 376.87C328.192 376.87 328.697 376.808 329.19 376.683C329.683 376.558 330.091 376.396 330.415 376.197L330.658 373.956H332.358V377.445C331.755 377.82 331.033 378.114 330.194 378.328C329.355 378.534 328.49 378.637 327.6 378.637ZM343.325 378.637C341.713 378.637 340.367 378.284 339.285 377.577C338.21 376.87 337.4 375.903 336.856 374.673C336.319 373.444 336.05 372.05 336.05 370.489V370.257C336.05 368.682 336.333 367.284 336.9 366.062C337.467 364.833 338.28 363.865 339.34 363.159C340.4 362.452 341.666 362.099 343.138 362.099C344.175 362.099 345.125 362.261 345.986 362.585C346.847 362.908 347.561 363.321 348.128 363.821V367.288H346.394L346.163 364.748C345.927 364.564 345.655 364.41 345.346 364.285C345.044 364.16 344.705 364.064 344.33 363.998C343.962 363.932 343.561 363.898 343.127 363.898C342.074 363.898 341.184 364.171 340.455 364.715C339.726 365.253 339.174 365.996 338.799 366.945C338.423 367.895 338.236 368.992 338.236 370.235V370.489C338.236 371.836 338.435 372.988 338.832 373.945C339.237 374.894 339.822 375.619 340.587 376.12C341.36 376.62 342.299 376.87 343.403 376.87C343.918 376.87 344.422 376.808 344.915 376.683C345.408 376.558 345.817 376.396 346.14 376.197L346.383 373.956H348.084V377.445C347.48 377.82 346.759 378.114 345.92 378.328C345.081 378.534 344.216 378.637 343.325 378.637ZM361.292 378.405V377.014L363.091 376.705V371.748C362.392 371.961 361.715 372.116 361.06 372.212C360.405 372.307 359.629 372.355 358.731 372.355C356.964 372.355 355.625 371.969 354.712 371.196C353.799 370.423 353.343 369.161 353.343 367.409V364.042L351.544 363.733V362.331H357.317V363.733L355.518 364.042V367.409C355.518 368.624 355.772 369.466 356.28 369.937C356.788 370.401 357.604 370.633 358.731 370.633C359.496 370.633 360.232 370.581 360.939 370.478C361.645 370.375 362.363 370.224 363.091 370.026V364.042L361.292 363.733V362.331H367.077V363.733L365.277 364.042V376.705L367.077 377.014V378.405H361.292ZM369.72 378.405V377.014L371.519 376.705V364.042L369.72 363.733V362.331H371.519H373.694H375.494V363.733L373.694 364.042V373.305L373.76 373.327L381.489 365.058V364.042L379.689 363.733V362.331H381.489H383.663H385.463V363.733L383.663 364.042V376.705L385.463 377.014V378.405H379.689V377.014L381.489 376.705V367.74L381.422 367.718L373.694 375.998V376.705L375.494 377.014V378.405H369.72ZM392.235 378.405V377.014L394.034 376.705V363.976H390.391L390.071 366.206H388.437V362.331H401.796V366.206H400.184L399.853 363.976H396.209V376.705L398.009 377.014V378.405H392.235ZM402.153 378.405V377.014L403.346 376.848L408.965 362.331H410.831L416.351 376.848L417.532 377.014V378.405H412.917V377.014L414.132 376.804L413.072 373.845H406.635L405.543 376.804L406.757 377.014V378.405H402.153ZM407.309 372.024H412.409L410.047 365.488L409.914 365.124H409.848L409.716 365.488L407.309 372.024ZM421.654 378.405V377.014L423.454 376.705V363.976H419.811L419.491 366.206H417.857V362.331H431.215V366.206H429.603L429.272 363.976H425.629V376.705L427.428 377.014V378.405H421.654ZM434.399 378.405V377.014L436.199 376.705V364.042L434.399 363.733V362.331H440.173V363.733L438.373 364.042V368.911H442.337C443.485 368.911 444.46 369.102 445.262 369.485C446.072 369.867 446.69 370.412 447.117 371.119C447.544 371.818 447.757 372.649 447.757 373.614C447.757 374.578 447.544 375.421 447.117 376.142C446.69 376.863 446.072 377.422 445.262 377.82C444.46 378.21 443.485 378.405 442.337 378.405H434.399ZM438.373 376.705H442.337C443.426 376.705 444.239 376.41 444.777 375.822C445.314 375.233 445.583 374.489 445.583 373.592C445.583 372.723 445.314 372.013 444.777 371.461C444.239 370.901 443.426 370.622 442.337 370.622H438.373V376.705ZM457.404 378.405V377.014L459.204 376.705V364.042L457.404 363.733V362.331H469.305V366.195H467.561L467.318 364.009H461.379V369.242H467.307V370.953H461.379V376.771H467.671L467.914 374.552H469.648V378.405H457.404ZM472.909 378.405V377.014L474.708 376.705V364.042L472.909 363.733V362.331H484.567V365.886H482.701L482.536 364.042H476.883V376.705L478.683 377.014V378.405H472.909ZM493.315 378.637C492.278 378.637 491.347 378.438 490.522 378.041C489.698 377.643 488.995 377.084 488.414 376.363C487.839 375.634 487.398 374.773 487.089 373.779C486.787 372.786 486.636 371.689 486.636 370.489V370.257C486.636 369.065 486.787 367.972 487.089 366.979C487.398 365.978 487.839 365.113 488.414 364.384C488.995 363.656 489.698 363.092 490.522 362.695C491.347 362.298 492.278 362.099 493.315 362.099C494.412 362.099 495.376 362.298 496.208 362.695C497.039 363.092 497.735 363.656 498.294 364.384C498.861 365.113 499.288 365.978 499.575 366.979C499.862 367.972 500.006 369.065 500.006 370.257V370.489C500.006 371.689 499.862 372.786 499.575 373.779C499.288 374.773 498.861 375.634 498.294 376.363C497.735 377.084 497.039 377.643 496.208 378.041C495.376 378.438 494.412 378.637 493.315 378.637ZM493.315 376.826C494.383 376.826 495.244 376.561 495.899 376.031C496.561 375.501 497.047 374.762 497.356 373.812C497.665 372.856 497.82 371.748 497.82 370.489V370.235C497.82 368.984 497.661 367.888 497.345 366.945C497.036 365.996 496.55 365.256 495.888 364.726C495.225 364.189 494.368 363.92 493.315 363.92C492.351 363.92 491.534 364.189 490.864 364.726C490.195 365.264 489.687 366.007 489.341 366.956C488.995 367.899 488.822 368.992 488.822 370.235V370.489C488.822 371.74 488.995 372.844 489.341 373.801C489.687 374.751 490.195 375.494 490.864 376.031C491.534 376.561 492.351 376.826 493.315 376.826ZM201.953 406.637C200.341 406.637 198.994 406.284 197.913 405.577C196.838 404.87 196.028 403.903 195.484 402.673C194.946 401.444 194.678 400.05 194.678 398.489V398.257C194.678 396.682 194.961 395.284 195.528 394.062C196.095 392.833 196.908 391.865 197.968 391.159C199.028 390.452 200.294 390.099 201.766 390.099C202.803 390.099 203.753 390.261 204.614 390.585C205.475 390.908 206.189 391.321 206.756 391.821V395.288H205.022L204.79 392.748C204.555 392.564 204.283 392.41 203.974 392.285C203.672 392.16 203.333 392.064 202.958 391.998C202.59 391.932 202.189 391.898 201.754 391.898C200.702 391.898 199.811 392.171 199.083 392.715C198.354 393.253 197.802 393.996 197.427 394.945C197.051 395.895 196.864 396.992 196.864 398.235V398.489C196.864 399.836 197.062 400.988 197.46 401.945C197.865 402.894 198.45 403.619 199.215 404.12C199.988 404.62 200.926 404.87 202.03 404.87C202.546 404.87 203.05 404.808 203.543 404.683C204.036 404.558 204.445 404.396 204.768 404.197L205.011 401.956H206.711V405.445C206.108 405.82 205.387 406.114 204.548 406.328C203.709 406.534 202.844 406.637 201.953 406.637ZM214.046 406.405V405.014L215.846 404.705V391.976H212.203L211.883 394.206H210.249V390.331H223.607V394.206H221.995L221.664 391.976H218.021V404.705L219.82 405.014V406.405H214.046ZM232.985 406.637C231.947 406.637 231.016 406.438 230.191 406.041C229.367 405.643 228.664 405.084 228.083 404.363C227.509 403.634 227.067 402.773 226.758 401.779C226.456 400.786 226.305 399.689 226.305 398.489V398.257C226.305 397.065 226.456 395.972 226.758 394.979C227.067 393.978 227.509 393.113 228.083 392.384C228.664 391.656 229.367 391.092 230.191 390.695C231.016 390.298 231.947 390.099 232.985 390.099C234.081 390.099 235.045 390.298 235.877 390.695C236.709 391.092 237.404 391.656 237.964 392.384C238.53 393.113 238.957 393.978 239.244 394.979C239.531 395.972 239.675 397.065 239.675 398.257V398.489C239.675 399.689 239.531 400.786 239.244 401.779C238.957 402.773 238.53 403.634 237.964 404.363C237.404 405.084 236.709 405.643 235.877 406.041C235.045 406.438 234.081 406.637 232.985 406.637ZM232.985 404.826C234.052 404.826 234.913 404.561 235.568 404.031C236.23 403.501 236.716 402.762 237.025 401.812C237.334 400.856 237.489 399.748 237.489 398.489V398.235C237.489 396.984 237.331 395.888 237.014 394.945C236.705 393.996 236.219 393.256 235.557 392.726C234.894 392.189 234.037 391.92 232.985 391.92C232.02 391.92 231.203 392.189 230.534 392.726C229.864 393.264 229.356 394.007 229.01 394.956C228.664 395.899 228.491 396.992 228.491 398.235V398.489C228.491 399.74 228.664 400.844 229.01 401.801C229.356 402.751 229.864 403.494 230.534 404.031C231.203 404.561 232.02 404.826 232.985 404.826ZM243.477 406.405V405.014L245.277 404.705V392.042L243.477 391.733V390.331H245.277H247.451H249.251V391.733L247.451 392.042V401.305L247.518 401.327L255.246 393.058V392.042L253.446 391.733V390.331H255.246H257.421H259.22V391.733L257.421 392.042V404.705L259.22 405.014V406.405H253.446V405.014L255.246 404.705V395.74L255.179 395.718L247.451 403.998V404.705L249.251 405.014V406.405H243.477ZM262.172 406.405V405.014L263.972 404.705V392.042L262.172 391.733V390.331H263.972H266.875L272.053 402.53H272.119L277.131 390.331H281.978V391.733L280.178 392.042V404.705L281.978 405.014V406.405H276.204V405.014L278.103 404.705V400.046V393.3L278.048 393.289L272.826 405.831H271.38L265.981 393.312L265.926 393.323L266.003 400.046V404.705L267.946 405.014V406.405H262.172ZM291.598 406.637C290.561 406.637 289.63 406.438 288.805 406.041C287.981 405.643 287.278 405.084 286.697 404.363C286.122 403.634 285.681 402.773 285.372 401.779C285.07 400.786 284.919 399.689 284.919 398.489V398.257C284.919 397.065 285.07 395.972 285.372 394.979C285.681 393.978 286.122 393.113 286.697 392.384C287.278 391.656 287.981 391.092 288.805 390.695C289.63 390.298 290.561 390.099 291.598 390.099C292.695 390.099 293.659 390.298 294.491 390.695C295.323 391.092 296.018 391.656 296.577 392.384C297.144 393.113 297.571 393.978 297.858 394.979C298.145 395.972 298.289 397.065 298.289 398.257V398.489C298.289 399.689 298.145 400.786 297.858 401.779C297.571 402.773 297.144 403.634 296.577 404.363C296.018 405.084 295.323 405.643 294.491 406.041C293.659 406.438 292.695 406.637 291.598 406.637ZM291.598 404.826C292.666 404.826 293.527 404.561 294.182 404.031C294.844 403.501 295.33 402.762 295.639 401.812C295.948 400.856 296.103 399.748 296.103 398.489V398.235C296.103 396.984 295.944 395.888 295.628 394.945C295.319 393.996 294.833 393.256 294.171 392.726C293.508 392.189 292.651 391.92 291.598 391.92C290.634 391.92 289.817 392.189 289.147 392.726C288.478 393.264 287.97 394.007 287.624 394.956C287.278 395.899 287.105 396.992 287.105 398.235V398.489C287.105 399.74 287.278 400.844 287.624 401.801C287.97 402.751 288.478 403.494 289.147 404.031C289.817 404.561 290.634 404.826 291.598 404.826ZM310.018 406.637C308.406 406.637 307.059 406.284 305.977 405.577C304.902 404.87 304.093 403.903 303.548 402.673C303.011 401.444 302.742 400.05 302.742 398.489V398.257C302.742 396.682 303.025 395.284 303.592 394.062C304.159 392.833 304.972 391.865 306.032 391.159C307.092 390.452 308.358 390.099 309.83 390.099C310.868 390.099 311.817 390.261 312.678 390.585C313.539 390.908 314.253 391.321 314.82 391.821V395.288H313.087L312.855 392.748C312.619 392.564 312.347 392.41 312.038 392.285C311.736 392.16 311.398 392.064 311.022 391.998C310.654 391.932 310.253 391.898 309.819 391.898C308.766 391.898 307.876 392.171 307.147 392.715C306.418 393.253 305.866 393.996 305.491 394.945C305.116 395.895 304.928 396.992 304.928 398.235V398.489C304.928 399.836 305.127 400.988 305.524 401.945C305.929 402.894 306.514 403.619 307.28 404.12C308.052 404.62 308.991 404.87 310.095 404.87C310.61 404.87 311.114 404.808 311.607 404.683C312.1 404.558 312.509 404.396 312.833 404.197L313.076 401.956H314.776V405.445C314.172 405.82 313.451 406.114 312.612 406.328C311.773 406.534 310.908 406.637 310.018 406.637ZM322.111 406.405V405.014L323.91 404.705V391.976H320.267L319.947 394.206H318.313V390.331H331.671V394.206H330.06L329.728 391.976H326.085V404.705L327.885 405.014V406.405H322.111ZM334.855 406.405V405.014L336.655 404.705V392.042L334.855 391.733V390.331H340.629V391.733L338.83 392.042V396.911H342.793C343.941 396.911 344.917 397.102 345.719 397.485C346.528 397.867 347.147 398.412 347.574 399.119C348 399.818 348.214 400.649 348.214 401.614C348.214 402.578 348 403.421 347.574 404.142C347.147 404.863 346.528 405.422 345.719 405.82C344.917 406.21 343.941 406.405 342.793 406.405H334.855ZM338.83 404.705H342.793C343.882 404.705 344.696 404.41 345.233 403.822C345.77 403.233 346.039 402.489 346.039 401.592C346.039 400.723 345.77 400.013 345.233 399.461C344.696 398.901 343.882 398.622 342.793 398.622H338.83V404.705Z" fill="#EAB512"/>
</g>
<defs>
<filter id="filter0_d_12_130" x="0" y="0" width="544" height="491" filterUnits="userSpaceOnUse" color-interpolation-filters="sRGB">
<feFlood flood-opacity="0" result="BackgroundImageFix"/>
<feColorMatrix in="SourceAlpha" type="matrix" values="0 0 0 0 0 0 0 0 0 0 0 0 0 0 0 0 0 0 127 0" result="hardAlpha"/>
<feOffset dy="4"/>
<feGaussianBlur stdDeviation="2"/>
<feComposite in2="hardAlpha" operator="out"/>
<feColorMatrix type="matrix" values="0 0 0 0 0 0 0 0 0 0 0 0 0 0 0 0 0 0 0.61 0"/>
<feBlend mode="normal" in2="BackgroundImageFix" result="effect1_dropShadow_12_130"/>
<feBlend mode="normal" in="SourceGraphic" in2="effect1_dropShadow_12_130" result="shape"/>
</filter>
</defs>
</svg>
